<svg xmlns="http://www.w3.org/2000/svg" viewBox="0 0 64 64" role="img" aria-labelledby="title">
  <title>Qwen</title>
  <rect width="64" height="64" rx="14" fill="#101513"/>
  <path
    fill="#b6f26a"
    d="M32 9c13.1 0 23 9.5 23 22.2 0 6.7-2.8 12.6-7.4 16.6l6.1 6.1-5.8 5.8-7-7A25.5 25.5 0 0 1 32 54C18.9 54 9 44.2 9 31.2 9 18.5 18.9 9 32 9Zm0 8.7c-7.8 0-13.9 5.8-13.9 13.5 0 8 6.1 14.1 13.9 14.1 1.7 0 3.4-.3 4.9-.9l-6.2-6.2 5.8-5.8 5.6 5.6c2.4-2.5 3.8-5.8 3.8-9.7 0-7.7-6.1-13.6-13.9-13.6Z"
  />
</svg>
